<svg 
 xmlns="http://www.w3.org/2000/svg"
 xmlns:xlink="http://www.w3.org/1999/xlink"
 width="28px" height="18px">

<!-- * * * * * * * For header-banner * * * * * * * -->
<symbol id="menu">
	<path fill-rule="evenodd"
 	d="M0.750,10.752 L0.750,9.252 L18.000,9.252 L18.000,10.752 L0.750,10.752 ZM7.500,4.751 L18.000,4.751 L18.000,6.252 L7.500,6.252 L7.500,4.751 ZM4.500,0.251 L18.000,0.251 L18.000,1.752 L4.500,1.752 L4.500,0.251 Z"/>
</symbol> 

<symbol id="facebook">
	<path fill-rule="evenodd"
 	d="M6.746,0.027 L5.127,0.024 C3.308,0.024 2.132,1.255 2.132,3.162 L2.132,4.608 L0.505,4.608 C0.364,4.608 0.250,4.726 0.250,4.869 L0.250,6.965 C0.250,7.108 0.364,7.225 0.505,7.225 L2.132,7.225 L2.132,12.514 C2.132,12.657 2.246,12.774 2.387,12.774 L4.511,12.774 C4.651,12.774 4.765,12.657 4.765,12.514 L4.765,7.225 L6.669,7.225 C6.809,7.225 6.923,7.108 6.923,6.965 L6.924,4.869 C6.924,4.799 6.897,4.734 6.849,4.684 C6.802,4.635 6.737,4.608 6.669,4.608 L4.765,4.608 L4.765,3.382 C4.765,2.792 4.903,2.493 5.655,2.493 L6.746,2.493 C6.886,2.493 7.000,2.376 7.000,2.233 L7.000,0.287 C7.000,0.143 6.886,0.027 6.746,0.027 Z"/>
</symbol>

<symbol id="twitter">
	<path fill-rule="evenodd"
 	d="M11.669,0.718 C11.193,1.021 10.666,1.242 10.105,1.362 C9.656,0.845 9.017,0.524 8.308,0.524 C6.948,0.524 5.846,1.712 5.846,3.175 C5.846,3.382 5.868,3.586 5.910,3.779 C3.864,3.669 2.050,2.612 0.836,1.008 C0.624,1.400 0.503,1.855 0.503,2.341 C0.503,3.262 0.938,4.073 1.598,4.547 C1.194,4.534 0.815,4.414 0.483,4.217 L0.483,4.248 C0.483,5.533 1.332,6.604 2.457,6.848 C2.251,6.908 2.034,6.941 1.809,6.941 C1.650,6.941 1.496,6.924 1.345,6.894 C1.659,7.946 2.568,8.712 3.644,8.735 C2.802,9.445 1.740,9.869 0.587,9.869 C0.389,9.869 0.193,9.857 0.000,9.833 C1.090,10.586 2.383,11.024 3.774,11.024 C8.302,11.024 10.778,6.985 10.778,3.480 L10.770,3.137 C11.252,2.765 11.670,2.298 12.000,1.766 C11.558,1.976 11.085,2.120 10.587,2.184 C11.095,1.856 11.485,1.335 11.669,0.718 Z"/>
</symbol>

</svg>

